<svg xmlns="http://www.w3.org/2000/svg" enable-background="new 0 0 60 60" viewBox="0 0 60 60" id="coding"><path d="M52,46.6923828H8c-1.6542969,0-3-1.3457031-3-3V9.0625c0-1.6542969,1.3457031-3,3-3h44c1.6542969,0,3,1.3457031,3,3
			v34.6298828C55,45.3466797,53.6542969,46.6923828,52,46.6923828z M8,8.0625c-0.5517578,0-1,0.4482422-1,1v34.6298828
			c0,0.5517578,0.4482422,1,1,1h44c0.5517578,0,1-0.4482422,1-1V9.0625c0-0.5517578-0.4482422-1-1-1H8z"></path><path d="M42.1396484 53.9375H17.8613281c-.4472656 0-.8398438-.296875-.9619141-.7275391-.1220703-.4296875.0566406-.8886719.4375-1.1240234 4.0693359-2.5097656 5.0947266-6.5917969 5.1054688-6.6328125.1298828-.5371094.671875-.8691406 1.2060547-.7373047.5371094.1289063.8671875.6699219.7373047 1.2060547-.0380859.1621094-.8203125 3.2763672-3.6279297 6.015625h18.4853516c-2.8066406-2.7392578-3.5888672-5.8535156-3.6269531-6.015625-.1298828-.5361328.2001953-1.0771484.7373047-1.2060547.5292969-.1318359 1.0761719.2001953 1.2060547.7373047.0097656.0380859 1.0664063 4.1425781 5.1054688 6.6328125.3798828.2353516.5585938.6943359.4365234 1.1240234C42.9794922 53.640625 42.5869141 53.9375 42.1396484 53.9375zM54 38.3125H6c-.5527344 0-1-.4472656-1-1s.4472656-1 1-1h48c.5527344 0 1 .4472656 1 1S54.5527344 38.3125 54 38.3125zM13.8896484 42.5H11.234375c-.5527344 0-1-.4472656-1-1s.4472656-1 1-1h2.6552734c.5527344 0 1 .4472656 1 1S14.4423828 42.5 13.8896484 42.5zM13.2558594 20.7421875c-.5527344 0-1-.4472656-1-1v-8c0-.5527344.4472656-1 1-1s1 .4472656 1 1v8C14.2558594 20.2949219 13.8085938 20.7421875 13.2558594 20.7421875zM30 20.7421875c-.5527344 0-1-.4472656-1-1v-8c0-.5527344.4472656-1 1-1s1 .4472656 1 1v8C31 20.2949219 30.5527344 20.7421875 30 20.7421875zM46.7441406 21.0341797c-.5527344 0-1-.4472656-1-1v-8.2919922c0-.5527344.4472656-1 1-1s1 .4472656 1 1v8.2919922C47.7441406 20.5869141 47.296875 21.0341797 46.7441406 21.0341797zM21.6279297 20.7421875c-1.7001953 0-3.0839844-1.3828125-3.0839844-3.0830078v-3.8330078c0-1.7001953 1.3837891-3.0839844 3.0839844-3.0839844s3.0830078 1.3837891 3.0830078 3.0839844v3.8330078C24.7109375 19.359375 23.328125 20.7421875 21.6279297 20.7421875zM21.6279297 12.7421875c-.5976563 0-1.0839844.4863281-1.0839844 1.0839844v3.8330078c0 .5966797.4863281 1.0830078 1.0839844 1.0830078s1.0830078-.4863281 1.0830078-1.0830078v-3.8330078C22.7109375 13.2285156 22.2255859 12.7421875 21.6279297 12.7421875zM38.3720703 20.7421875c-1.7001953 0-3.0839844-1.3828125-3.0839844-3.0830078v-3.8330078c0-1.7001953 1.3837891-3.0839844 3.0839844-3.0839844s3.0830078 1.3837891 3.0830078 3.0839844v3.8330078C41.4550781 19.359375 40.0722656 20.7421875 38.3720703 20.7421875zM38.3720703 12.7421875c-.5976563 0-1.0839844.4863281-1.0839844 1.0839844v3.8330078c0 .5966797.4863281 1.0830078 1.0839844 1.0830078s1.0830078-.4863281 1.0830078-1.0830078v-3.8330078C39.4550781 13.2285156 38.9697266 12.7421875 38.3720703 12.7421875z"></path><g><path d="M13.2558594 33.6328125c-.5527344 0-1-.4472656-1-1v-8c0-.5527344.4472656-1 1-1s1 .4472656 1 1v8C14.2558594 33.1855469 13.8085938 33.6328125 13.2558594 33.6328125zM21.6279297 33.6328125c-.5527344 0-1-.4472656-1-1v-8c0-.5527344.4472656-1 1-1s1 .4472656 1 1v8C22.6279297 33.1855469 22.1806641 33.6328125 21.6279297 33.6328125zM46.7441406 33.6328125c-.5527344 0-1-.4472656-1-1v-8.2919922c0-.5527344.4472656-1 1-1s1 .4472656 1 1v8.2919922C47.7441406 33.1855469 47.296875 33.6328125 46.7441406 33.6328125zM30 33.6328125c-1.7001953 0-3.0839844-1.3837891-3.0839844-3.0839844v-3.8330078c0-1.7001953 1.3837891-3.0830078 3.0839844-3.0830078s3.0830078 1.3828125 3.0830078 3.0830078v3.8330078C33.0830078 32.2490234 31.7001953 33.6328125 30 33.6328125zM30 25.6328125c-.5976563 0-1.0839844.4863281-1.0839844 1.0830078v3.8330078c0 .5976563.4863281 1.0839844 1.0839844 1.0839844s1.0830078-.4863281 1.0830078-1.0839844v-3.8330078C31.0830078 26.1191406 30.5976563 25.6328125 30 25.6328125zM38.3720703 33.6328125c-1.7001953 0-3.0839844-1.3837891-3.0839844-3.0839844v-3.8330078c0-1.7001953 1.3837891-3.0830078 3.0839844-3.0830078s3.0830078 1.3828125 3.0830078 3.0830078v3.8330078C41.4550781 32.2490234 40.0722656 33.6328125 38.3720703 33.6328125zM38.3720703 25.6328125c-.5976563 0-1.0839844.4863281-1.0839844 1.0830078v3.8330078c0 .5976563.4863281 1.0839844 1.0839844 1.0839844s1.0830078-.4863281 1.0830078-1.0839844v-3.8330078C39.4550781 26.1191406 38.9697266 25.6328125 38.3720703 25.6328125z"></path></g></svg>