<svg xmlns="http://www.w3.org/2000/svg" enable-background="new 0 0 50 50" viewBox="0 0 50 50" id="healthcare"><path fill="#1E1E1C" d="M27.5,32.1c4.2-0.6,8.2-1.8,11.3-4.8c3.1-3,3.5-11.3,3.1-15.3c-0.4-4.3-4.7-6.8-8.1-8.8
				c-1.4-0.8-3-1.4-4.6-1.4c-1.5,0-2.2,0.7-3.9-0.1c-0.7-0.3-1.4-0.9-2.2-1c-2.8-0.3-4.9,1.3-6.7,3.4c-1.9,2.2,1.9,4,3.6,4
				c1.5,0,2.6-0.5,3.9-1.2c4.6-2.6,9.7,1,11.9,4.9c4.3,7.6-2.5,13.5-8.9,16.3c-0.8,0.3,0.6,0.7,1.1,0.5c2.9-1.2,6.2-2.8,8.2-5.2
				c2.5-3,2.2-5.7,1.7-9.4c-0.7-5.4-7.1-9.4-12.2-8.9c-1,0.1-2,0.8-2.9,1.3c-5.3-0.4-6.5-1.6-3.3-3.6c2.6-2.2,3.7-0.9,5.8-0.1
				c0.5,0.2,1.2,0.2,1.6,0.2c3.9,0.2,6.3,1,9.5,3.2C41,9.4,40.8,14,40,19c-0.5,3.1-1,6.6-3.4,8.8c-2.4,2.4-6.3,3.1-9.5,3.6
				C26.1,31.5,26.8,32.2,27.5,32.1L27.5,32.1z"></path><path fill="#1E1E1C" d="M22.2 28c-4.6 1.4-12.7 4.5-8.1 10.8 1.3 1.8 4.5 2.7 6.5 3 1.2.2 2.4.3 3.6.1 5.2-.6 5.3 1.9 8.7 3.5.8.4 2.3 1.1 3.2.8 2.7-.8-.4-4.2-1.3-4.9-1.7-1.3-4.3-2.9-6.5-3.3-1.5-.3-2.9-.3-4.5-.3-1.8 0-7.4-.9-4.7-3.9.9-1 2.9-1.3 4.1-1.4.7-.1-.7-.5-1-.5-2 .2-8.4 3.1-4 5.1 1.4.7 3.2 1 4.7 1.1 4.5.4 8.7 1.2 12.1 4.5 2 2-.9 2.8-2.4 1.8-1-.7-1.7-1.7-2.8-2.2-1.7-.8-3.2-1-5-.9-4.6.2-9.3-.2-10.3-4.7-.5-2.1.4-3.7 1.9-5.2 1.7-1.7 4.9-2.3 7.1-2.9C23.8 28.3 22.5 27.9 22.2 28L22.2 28zM36 21.6c-5.7 3.4-13.4 4-19.6 1.8-1.7-.6-3.3-1.5-4.9-2.4-1.4-.8-8.4-7.4-5.1-7.1 1.6.1 3.3 0 4.9 0 8.5-.2 17-1 25.5-1.1-.1 0-.4-1.3-.7-1.3-10.1.2-20.9 2.4-30.9 1.1 0 0 0 .1 0 .1C8.8 25.6 26 29.4 36.8 22.9 36.9 22.9 36.1 21.6 36 21.6L36 21.6zM42 13c.5 0 1 0 1.5 0 .5 0-.1 1.4-.2 1.6-.5 1.2-1.1 2.8-2.3 3.3-.9.4 0 1.4.7 1.1 1.8-.8 2.6-3 3.3-4.7.3-.7.4-1.6-.2-2.2-.7-.6-1.9-.4-2.7-.4C41.1 11.8 41.1 13.1 42 13L42 13z"></path><path fill="#1E1E1C" d="M22.4 26.1c0 3.9 0 7.8 0 11.7 0 .5 1.4 0 1.4-.5 0-3.9 0-7.8 0-11.7C23.8 25.1 22.4 25.6 22.4 26.1L22.4 26.1zM26.4 25.4c0 4.1 0 8.2 0 12.4 0 .8 1.5.9 1.5.2 0-4.1 0-8.2 0-12.4C27.9 24.8 26.4 24.6 26.4 25.4L26.4 25.4zM30.9 44.3c-1.2-.4-2.5-.5-3.7-.5-1.7 0-3.7-.5-5.3 0-.9.2-5.1 4.5-3.3 5 2 .6 4.3.1 6.4.2 1.9.1 3.7.6 5.7.4.9-.1 1.7-.7 1.9-1.5.5-1.6-.1-2.6-1.5-3.5-.5-.3-1.8.5-1.2.8 1.9 1.3 1.8 3.3-.7 3.2-1 0-1.8-.1-2.8-.4-.9-.2-1.8-.1-2.7-.1-.5 0-4.9.4-3.6-1.1.8-1 1.4-2.2 3-2.2.8 0 1.5.4 2.3.3 1.5-.1 3.2-.3 4.6.3C30.5 45.5 31.6 44.6 30.9 44.3z"></path><path fill="#1E1E1C" d="M22.2 41.5c0 .7 0 1.4 0 2.2 0 .3.3.6.6.8.1.1.7.3.7-.1 0-.7 0-1.4 0-2.2 0-.3-.3-.6-.6-.8C22.7 41.3 22.2 41.1 22.2 41.5L22.2 41.5zM26.6 42c0 .8 0 1.6 0 2.5 0 .6 1.4 0 1.4-.6 0-.8 0-1.6 0-2.5C28 40.9 26.6 41.5 26.6 42L26.6 42zM16.2 20.3c-1-.7-2-1.6-3-2.4-.4-.3-2.2-1.4-1.2-1.5 1.8-.1 3.6-.1 5.4-.1 3.2 0 6.5-.1 9.7-.1 1 0 .2-.4-.4-.4-5.3 0-11.1-.6-16.3.3-.1 0-.3 0-.2.2 1 1.6 2.9 2.9 4.5 4C15.1 20.5 16.3 20.3 16.2 20.3L16.2 20.3z"></path></svg>